<?xml version="1.0" encoding="utf-8"?>
<!-- Generator: Adobe Illustrator 20.0.0, SVG Export Plug-In . SVG Version: 6.00 Build 0)  -->
<svg version="1.1" xmlns="http://www.w3.org/2000/svg" xmlns:xlink="http://www.w3.org/1999/xlink" x="0px" y="0px"
	 viewBox="0 0 133.333 150" style="enable-background:new 0 0 133.333 150;" xml:space="preserve">
<g id="VuMark-UserData">
	<path style="opacity:0.2;fill:#FFFFFF;stroke:#A7A9AC;stroke-width:0.25;stroke-miterlimit:10;" d="M126.413,5.334l-6.226,122.226
		l-33.386-3.525l-0.059-28.573l-20.071,26.555L46.601,95.462l-0.059,28.575l-33.385,3.512L6.92,5.334H126.413z M83.492,10.334
		l-16.82,33.52l-16.83-33.52h-37.66l5.7,111.69l23.67-2.49l0.08-38.94l25.04,33.13l25.04-33.13l0.08,38.94l23.67,2.5l5.69-111.7
		H83.492z"/>
	<g style="opacity:0.2;">
		<path style="fill:#FFFFFF;" d="M23.647,137.681c-0.036-0.954-0.071-2.108-0.071-3.263H23.54c-0.247,1.013-0.577,2.144-0.883,3.074
			l-0.966,3.098h-1.402l-0.848-3.074c-0.259-0.931-0.53-2.062-0.719-3.098h-0.023c-0.047,1.071-0.083,2.297-0.141,3.286
			l-0.142,3.016h-1.661l0.507-7.939h2.391l0.777,2.65c0.248,0.919,0.495,1.908,0.671,2.839h0.036
			c0.224-0.919,0.495-1.967,0.754-2.851l0.848-2.639h2.344l0.436,7.939h-1.755L23.647,137.681z"/>
		<path style="fill:#FFFFFF;" d="M34.167,136.668c0,2.604-1.578,4.183-3.899,4.183c-2.356,0-3.734-1.779-3.734-4.041
			c0-2.379,1.52-4.158,3.864-4.158C32.836,132.651,34.167,134.477,34.167,136.668z M28.43,136.774c0,1.555,0.73,2.65,1.932,2.65
			c1.213,0,1.908-1.154,1.908-2.697c0-1.426-0.683-2.65-1.92-2.65C29.137,134.077,28.43,135.231,28.43,136.774z"/>
		<path style="fill:#FFFFFF;" d="M35.346,132.886c0.577-0.094,1.438-0.164,2.392-0.164c1.178,0,2.002,0.176,2.568,0.624
			c0.471,0.377,0.73,0.931,0.73,1.661c0,1.013-0.719,1.708-1.402,1.955v0.035c0.554,0.224,0.86,0.754,1.06,1.484
			c0.248,0.896,0.495,1.932,0.648,2.238h-1.838c-0.129-0.224-0.318-0.872-0.554-1.85c-0.212-0.989-0.553-1.26-1.284-1.272h-0.542
			v3.122h-1.779V132.886z M37.125,136.303h0.707c0.895,0,1.425-0.448,1.425-1.144c0-0.729-0.495-1.095-1.319-1.106
			c-0.436,0-0.684,0.035-0.813,0.059V136.303z"/>
		<path style="fill:#FFFFFF;" d="M43.863,134.289h-2.132v-1.508h6.102v1.508h-2.167v6.432h-1.803V134.289z"/>
		<path style="fill:#FFFFFF;" d="M55.715,136.668c0,2.604-1.578,4.183-3.899,4.183c-2.356,0-3.734-1.779-3.734-4.041
			c0-2.379,1.52-4.158,3.864-4.158C54.383,132.651,55.715,134.477,55.715,136.668z M49.978,136.774c0,1.555,0.73,2.65,1.932,2.65
			c1.213,0,1.908-1.154,1.908-2.697c0-1.426-0.683-2.65-1.92-2.65C50.685,134.077,49.978,135.231,49.978,136.774z"/>
		<path style="fill:#FFFFFF;" d="M56.894,140.72v-7.939h2.097l1.649,2.909c0.471,0.837,0.942,1.826,1.296,2.722h0.035
			c-0.118-1.049-0.153-2.121-0.153-3.311v-2.32h1.649v7.939h-1.885l-1.696-3.063c-0.471-0.849-0.989-1.873-1.378-2.804l-0.035,0.012
			c0.047,1.048,0.071,2.167,0.071,3.463v2.392H56.894z"/>
		<path style="fill:#FFFFFF;" d="M68.475,134.289h-2.132v-1.508h6.102v1.508h-2.167v6.432h-1.803V134.289z"/>
		<path style="fill:#FFFFFF;" d="M75.19,132.781v4.57c0,1.366,0.519,2.062,1.438,2.062c0.941,0,1.461-0.659,1.461-2.062v-4.57h1.79
			v4.453c0,2.449-1.237,3.616-3.31,3.616c-2.003,0-3.182-1.107-3.182-3.641v-4.429H75.19z"/>
		<path style="fill:#FFFFFF;" d="M85.616,140.72l-0.719-1.438c-0.294-0.554-0.482-0.966-0.707-1.425h-0.023
			c-0.164,0.459-0.365,0.871-0.611,1.425l-0.66,1.438h-2.05l2.297-4.017l-2.214-3.923h2.061l0.695,1.449
			c0.236,0.482,0.412,0.871,0.602,1.319h0.023c0.188-0.507,0.341-0.86,0.541-1.319l0.672-1.449h2.049l-2.237,3.875l2.356,4.064
			H85.616z"/>
		<path style="fill:#FFFFFF;" d="M93.38,137.363h-2.922v1.885h3.264v1.473h-5.065v-7.939h4.9v1.473h-3.099v1.648h2.922V137.363z"/>
		<path style="fill:#FFFFFF;" d="M94.948,132.886c0.659-0.105,1.52-0.164,2.426-0.164c1.508,0,2.486,0.271,3.252,0.848
			c0.824,0.612,1.343,1.59,1.343,2.992c0,1.52-0.554,2.568-1.319,3.216c-0.836,0.695-2.109,1.024-3.664,1.024
			c-0.93,0-1.59-0.059-2.037-0.117V132.886z M96.75,139.366c0.153,0.035,0.401,0.035,0.624,0.035
			c1.626,0.012,2.686-0.884,2.686-2.78c0.013-1.648-0.953-2.521-2.496-2.521c-0.4,0-0.66,0.035-0.813,0.07V139.366z"/>
		<path style="fill:#FFFFFF;" d="M110.415,136.668c0,2.604-1.578,4.183-3.898,4.183c-2.355,0-3.734-1.779-3.734-4.041
			c0-2.379,1.52-4.158,3.863-4.158C109.085,132.651,110.415,134.477,110.415,136.668z M104.678,136.774
			c0,1.555,0.73,2.65,1.932,2.65c1.214,0,1.908-1.154,1.908-2.697c0-1.426-0.683-2.65-1.92-2.65
			C105.385,134.077,104.678,135.231,104.678,136.774z"/>
		<path style="fill:#FFFFFF;" d="M111.653,138.871c0.483,0.248,1.226,0.495,1.991,0.495c0.825,0,1.261-0.342,1.261-0.86
			c0-0.494-0.377-0.777-1.332-1.119c-1.318-0.459-2.179-1.189-2.179-2.344c0-1.354,1.131-2.392,3.004-2.392
			c0.896,0,1.556,0.188,2.026,0.4l-0.4,1.449c-0.318-0.153-0.884-0.377-1.661-0.377c-0.778,0-1.155,0.354-1.155,0.766
			c0,0.507,0.448,0.73,1.473,1.119c1.402,0.519,2.063,1.249,2.063,2.368c0,1.331-1.025,2.462-3.205,2.462
			c-0.906,0-1.802-0.236-2.25-0.483L111.653,138.871z"/>
	</g>
</g>
<g id="VuMark-ClearSpace">
	<rect style="fill:#FFFFFF;" width="133.333" height="150"/>
</g>
<g id="VuMark-Border">
	<polygon points="121.152,10.334 115.462,122.034 91.792,119.534 91.712,80.594 66.672,113.724 41.632,80.594 41.552,119.534 
		17.882,122.024 12.182,10.334 49.842,10.334 66.672,43.854 83.492,10.334 	"/>
</g>
<g id="VuMark-Background">
	<polygon points="56.208,17.029 56.208,10.334 66.667,12.834 	"/>
	<polygon points="77.125,17.029 77.125,10.334 66.667,12.834 	"/>
	<g>
		<path d="M23.647,137.681c-0.036-0.954-0.071-2.108-0.071-3.263H23.54c-0.247,1.013-0.577,2.144-0.883,3.074l-0.966,3.098h-1.402
			l-0.848-3.074c-0.259-0.931-0.53-2.062-0.719-3.098h-0.023c-0.047,1.071-0.083,2.297-0.141,3.286l-0.142,3.016h-1.661l0.507-7.939
			h2.391l0.777,2.65c0.248,0.919,0.495,1.908,0.671,2.839h0.036c0.224-0.919,0.495-1.967,0.754-2.851l0.848-2.639h2.344l0.436,7.939
			h-1.755L23.647,137.681z"/>
		<path d="M34.167,136.668c0,2.604-1.578,4.183-3.899,4.183c-2.356,0-3.734-1.779-3.734-4.041c0-2.379,1.52-4.158,3.864-4.158
			C32.836,132.651,34.167,134.477,34.167,136.668z M28.43,136.774c0,1.555,0.73,2.65,1.932,2.65c1.213,0,1.908-1.154,1.908-2.697
			c0-1.426-0.683-2.65-1.92-2.65C29.137,134.077,28.43,135.231,28.43,136.774z"/>
		<path d="M35.346,132.886c0.577-0.094,1.438-0.164,2.392-0.164c1.178,0,2.002,0.176,2.568,0.624c0.471,0.377,0.73,0.931,0.73,1.661
			c0,1.013-0.719,1.708-1.402,1.955v0.035c0.554,0.224,0.86,0.754,1.06,1.484c0.248,0.896,0.495,1.932,0.648,2.238h-1.838
			c-0.129-0.224-0.318-0.872-0.554-1.85c-0.212-0.989-0.553-1.26-1.284-1.272h-0.542v3.122h-1.779V132.886z M37.125,136.303h0.707
			c0.895,0,1.425-0.448,1.425-1.144c0-0.729-0.495-1.095-1.319-1.106c-0.436,0-0.684,0.035-0.813,0.059V136.303z"/>
		<path d="M43.863,134.289h-2.132v-1.508h6.102v1.508h-2.167v6.432h-1.803V134.289z"/>
		<path d="M55.715,136.668c0,2.604-1.578,4.183-3.899,4.183c-2.356,0-3.734-1.779-3.734-4.041c0-2.379,1.52-4.158,3.864-4.158
			C54.383,132.651,55.715,134.477,55.715,136.668z M49.978,136.774c0,1.555,0.73,2.65,1.932,2.65c1.213,0,1.908-1.154,1.908-2.697
			c0-1.426-0.683-2.65-1.92-2.65C50.685,134.077,49.978,135.231,49.978,136.774z"/>
		<path d="M56.894,140.72v-7.939h2.097l1.649,2.909c0.471,0.837,0.942,1.826,1.296,2.722h0.035
			c-0.118-1.049-0.153-2.121-0.153-3.311v-2.32h1.649v7.939h-1.885l-1.696-3.063c-0.471-0.849-0.989-1.873-1.378-2.804l-0.035,0.012
			c0.047,1.048,0.071,2.167,0.071,3.463v2.392H56.894z"/>
		<path d="M68.475,134.289h-2.132v-1.508h6.102v1.508h-2.167v6.432h-1.803V134.289z"/>
		<path d="M75.19,132.781v4.57c0,1.366,0.519,2.062,1.438,2.062c0.941,0,1.461-0.659,1.461-2.062v-4.57h1.79v4.453
			c0,2.449-1.237,3.616-3.31,3.616c-2.003,0-3.182-1.107-3.182-3.641v-4.429H75.19z"/>
		<path d="M85.616,140.72l-0.719-1.438c-0.294-0.554-0.482-0.966-0.707-1.425h-0.023c-0.164,0.459-0.365,0.871-0.611,1.425
			l-0.66,1.438h-2.05l2.297-4.017l-2.214-3.923h2.061l0.695,1.449c0.236,0.482,0.412,0.871,0.602,1.319h0.023
			c0.188-0.507,0.341-0.86,0.541-1.319l0.672-1.449h2.049l-2.237,3.875l2.356,4.064H85.616z"/>
		<path d="M93.38,137.363h-2.922v1.885h3.264v1.473h-5.065v-7.939h4.9v1.473h-3.099v1.648h2.922V137.363z"/>
		<path d="M94.948,132.886c0.659-0.105,1.52-0.164,2.426-0.164c1.508,0,2.486,0.271,3.252,0.848c0.824,0.612,1.343,1.59,1.343,2.992
			c0,1.52-0.554,2.568-1.319,3.216c-0.836,0.695-2.109,1.024-3.664,1.024c-0.93,0-1.59-0.059-2.037-0.117V132.886z M96.75,139.366
			c0.153,0.035,0.401,0.035,0.624,0.035c1.626,0.012,2.686-0.884,2.686-2.78c0.013-1.648-0.953-2.521-2.496-2.521
			c-0.4,0-0.66,0.035-0.813,0.07V139.366z"/>
		<path d="M110.415,136.668c0,2.604-1.578,4.183-3.898,4.183c-2.355,0-3.734-1.779-3.734-4.041c0-2.379,1.52-4.158,3.863-4.158
			C109.085,132.651,110.415,134.477,110.415,136.668z M104.678,136.774c0,1.555,0.73,2.65,1.932,2.65
			c1.214,0,1.908-1.154,1.908-2.697c0-1.426-0.683-2.65-1.92-2.65C105.385,134.077,104.678,135.231,104.678,136.774z"/>
		<path d="M111.653,138.871c0.483,0.248,1.226,0.495,1.991,0.495c0.825,0,1.261-0.342,1.261-0.86c0-0.494-0.377-0.777-1.332-1.119
			c-1.318-0.459-2.179-1.189-2.179-2.344c0-1.354,1.131-2.392,3.004-2.392c0.896,0,1.556,0.188,2.026,0.4l-0.4,1.449
			c-0.318-0.153-0.884-0.377-1.661-0.377c-0.778,0-1.155,0.354-1.155,0.766c0,0.507,0.448,0.73,1.473,1.119
			c1.402,0.519,2.063,1.249,2.063,2.368c0,1.331-1.025,2.462-3.205,2.462c-0.906,0-1.802-0.236-2.25-0.483L111.653,138.871z"/>
	</g>
</g>
<g id="VuMark-DarkElements">
	<polygon id="d0007_1_" points="47.922,68.724 44.172,73.724 40.422,68.724 44.172,63.724 	"/>
	<polygon id="d0032" points="51.672,63.724 47.922,68.724 44.172,63.724 47.922,58.724 	"/>
	<polygon id="d0008_1_" points="51.672,73.724 47.922,78.724 44.172,73.724 47.922,68.724 	"/>
	<polygon id="d0009_1_" points="55.422,68.724 51.672,73.724 47.922,68.724 51.672,63.724 	"/>
	<polygon id="d0000_1_" points="55.422,78.724 51.672,83.724 47.922,78.724 51.672,73.724 	"/>
	<polygon id="d0035" points="59.172,63.724 55.422,68.724 51.672,63.724 55.422,58.724 	"/>
	<polygon id="d0010_1_" points="59.172,73.724 55.422,78.724 51.672,73.724 55.422,68.724 	"/>
	<polygon id="d0001_1_" points="59.172,83.724 55.422,88.724 51.672,83.724 55.422,78.724 	"/>
	<polygon id="d0011_1_" points="62.922,68.724 59.172,73.724 55.422,68.724 59.172,63.724 	"/>
	<polygon id="d0002_1_" points="62.922,78.724 59.172,83.724 55.422,78.724 59.172,73.724 	"/>
	<polygon id="d0003_1_" points="62.922,88.724 59.172,93.724 55.422,88.724 59.172,83.724 	"/>
	<polygon id="d0038" points="66.672,63.724 62.922,68.724 59.172,63.724 62.922,58.724 	"/>
	<polygon id="d0012_1_" points="66.672,73.724 62.922,78.724 59.172,73.724 62.922,68.724 	"/>
	<polygon id="d0004_1_" points="66.672,83.724 62.922,88.724 59.172,83.724 62.922,78.724 	"/>
	<polygon id="d0005_1_" points="66.672,93.724 62.922,98.724 59.172,93.724 62.922,88.724 	"/>
	<polygon id="d0013_1_" points="70.422,68.724 66.672,73.724 62.922,68.724 66.672,63.724 	"/>
	<polygon id="d0006_1_" points="70.422,78.724 66.672,83.724 62.922,78.724 66.672,73.724 	"/>
	<polygon id="d0014_1_" points="70.422,88.724 66.672,93.724 62.922,88.724 66.672,83.724 	"/>
	<polygon id="d0015_1_" points="70.422,98.724 66.672,103.724 62.922,98.724 66.672,93.724 	"/>
	<polygon id="d0041" points="74.172,63.724 70.422,68.724 66.672,63.724 70.422,58.724 	"/>
	<polygon id="d0021_1_" points="74.172,73.724 70.422,78.724 66.672,73.724 70.422,68.724 	"/>
	<polygon id="d0017_1_" points="74.172,83.724 70.422,88.724 66.672,83.724 70.422,78.724 	"/>
	<polygon id="d0016_1_" points="74.172,93.724 70.422,98.724 66.672,93.724 70.422,88.724 	"/>
	<polygon id="d0022_1_" points="77.922,68.724 74.172,73.724 70.422,68.724 74.172,63.724 	"/>
	<polygon id="d0023_1_" points="77.922,78.724 74.172,83.724 70.422,78.724 74.172,73.724 	"/>
	<polygon id="d0018_1_" points="77.922,88.724 74.172,93.724 70.422,88.724 74.172,83.724 	"/>
	<polygon id="d0043" points="81.672,63.724 77.922,68.724 74.172,63.724 77.922,58.724 	"/>
	<polygon id="d0024_1_" points="81.672,73.724 77.922,78.724 74.172,73.724 77.922,68.724 	"/>
	<polygon id="d0019_1_" points="81.672,83.724 77.922,88.724 74.172,83.724 77.922,78.724 	"/>
	<polygon id="d0025" points="85.422,68.724 81.672,73.724 77.922,68.724 81.672,63.724 	"/>
	<polygon id="d0020_1_" points="85.422,78.724 81.672,83.724 77.922,78.724 81.672,73.724 	"/>
	<polygon id="d0045" points="89.172,63.724 85.422,68.724 81.672,63.724 85.422,58.724 	"/>
	<polygon id="d0026" points="89.172,73.724 85.422,78.724 81.672,73.724 85.422,68.724 	"/>
	<polygon id="d0027" points="92.922,68.724 89.172,73.724 85.422,68.724 89.172,63.724 	"/>
	<polygon id="d0034" points="55.422,58.724 51.672,63.724 47.922,58.724 51.672,53.724 	"/>
	<polygon id="d0036_1_" points="59.172,53.724 55.422,58.724 51.672,53.724 55.422,48.724 	"/>
	<polygon id="d0037" points="62.922,58.724 59.172,63.724 55.422,58.724 59.172,53.724 	"/>
	<polygon id="d0039" points="66.672,53.724 62.922,58.724 59.172,53.724 62.922,48.724 	"/>
	<polygon id="d0040" points="70.422,58.724 66.672,63.724 62.922,58.724 66.672,53.724 	"/>
	<polygon id="d0049" points="74.172,53.724 70.422,58.724 66.672,53.724 70.422,48.724 	"/>
	<polygon id="d0042" points="77.922,58.724 74.172,63.724 70.422,58.724 74.172,53.724 	"/>
	<polygon id="d0050" points="81.672,53.724 77.922,58.724 74.172,53.724 77.922,48.724 	"/>
	<polygon id="d0044" points="85.422,58.724 81.672,63.724 77.922,58.724 81.672,53.724 	"/>
	<polygon id="d0053" points="102.379,26.786 98.629,31.786 94.879,26.786 98.629,21.786 	"/>
	<polygon id="d0055" points="109.879,26.786 106.129,31.786 102.379,26.786 106.129,21.786 	"/>
	<polygon id="d0029_1_" points="44.172,63.724 40.422,68.724 36.672,63.724 40.422,58.724 	"/>
	<polygon id="d0031" points="47.922,58.724 44.172,63.724 40.422,58.724 44.172,53.724 	"/>
	<polygon id="d0028" points="40.422,58.724 36.672,63.724 32.922,58.724 36.672,53.724 	"/>
	<polygon id="d0030" points="44.172,53.724 40.422,58.724 36.672,53.724 40.422,48.724 	"/>
	<polygon id="d0033" points="51.672,53.724 47.922,58.724 44.172,53.724 47.922,48.724 	"/>
	<polygon id="d0047" points="96.672,63.724 92.922,68.724 89.172,63.724 92.922,58.724 	"/>
	<polygon id="d0054" points="106.129,31.786 102.379,36.786 98.629,31.786 102.379,26.786 	"/>
	<polygon id="d0051" points="89.172,53.724 85.422,58.724 81.672,53.724 85.422,48.724 	"/>
	<polygon id="d0046" points="92.922,58.724 89.172,63.724 85.422,58.724 89.172,53.724 	"/>
	<polygon id="d0048" points="100.422,58.724 96.672,63.724 92.922,58.724 96.672,53.724 	"/>
	<polygon id="d0052" points="96.672,53.724 92.922,58.724 89.172,53.724 92.922,48.724 	"/>
</g>
<g id="VuMark-BrightElements">
	<polygon id="b0007_1_" style="fill:#FFFFFF;" points="47.922,68.724 44.172,73.724 40.422,68.724 44.172,63.724 	"/>
	<polygon id="b0032" style="fill:#FFFFFF;" points="51.672,63.724 47.922,68.724 44.172,63.724 47.922,58.724 	"/>
	<polygon id="b0008_1_" style="fill:#FFFFFF;" points="51.672,73.724 47.922,78.724 44.172,73.724 47.922,68.724 	"/>
	<polygon id="b0009_1_" style="fill:#FFFFFF;" points="55.422,68.724 51.672,73.724 47.922,68.724 51.672,63.724 	"/>
	<polygon id="b0000_1_" style="fill:#FFFFFF;" points="55.422,78.724 51.672,83.724 47.922,78.724 51.672,73.724 	"/>
	<polygon id="b0035" style="fill:#FFFFFF;" points="59.172,63.724 55.422,68.724 51.672,63.724 55.422,58.724 	"/>
	<polygon id="b0010_1_" style="fill:#FFFFFF;" points="59.172,73.724 55.422,78.724 51.672,73.724 55.422,68.724 	"/>
	<polygon id="b0001_1_" style="fill:#FFFFFF;" points="59.172,83.724 55.422,88.724 51.672,83.724 55.422,78.724 	"/>
	<polygon id="b0011_1_" style="fill:#FFFFFF;" points="62.922,68.724 59.172,73.724 55.422,68.724 59.172,63.724 	"/>
	<polygon id="b0002_1_" style="fill:#FFFFFF;" points="62.922,78.724 59.172,83.724 55.422,78.724 59.172,73.724 	"/>
	<polygon id="b0003_1_" style="fill:#FFFFFF;" points="62.922,88.724 59.172,93.724 55.422,88.724 59.172,83.724 	"/>
	<polygon id="b0038" style="fill:#FFFFFF;" points="66.672,63.724 62.922,68.724 59.172,63.724 62.922,58.724 	"/>
	<polygon id="b0012_1_" style="fill:#FFFFFF;" points="66.672,73.724 62.922,78.724 59.172,73.724 62.922,68.724 	"/>
	<polygon id="b0004_1_" style="fill:#FFFFFF;" points="66.672,83.724 62.922,88.724 59.172,83.724 62.922,78.724 	"/>
	<polygon id="b0005_1_" style="fill:#FFFFFF;" points="66.672,93.724 62.922,98.724 59.172,93.724 62.922,88.724 	"/>
	<polygon id="b0013_1_" style="fill:#FFFFFF;" points="70.422,68.724 66.672,73.724 62.922,68.724 66.672,63.724 	"/>
	<polygon id="b0006_1_" style="fill:#FFFFFF;" points="70.422,78.724 66.672,83.724 62.922,78.724 66.672,73.724 	"/>
	<polygon id="b0014_1_" style="fill:#FFFFFF;" points="70.422,88.724 66.672,93.724 62.922,88.724 66.672,83.724 	"/>
	<polygon id="b0015_1_" style="fill:#FFFFFF;" points="70.422,98.724 66.672,103.724 62.922,98.724 66.672,93.724 	"/>
	<polygon id="b0041" style="fill:#FFFFFF;" points="74.172,63.724 70.422,68.724 66.672,63.724 70.422,58.724 	"/>
	<polygon id="b0021_1_" style="fill:#FFFFFF;" points="74.172,73.724 70.422,78.724 66.672,73.724 70.422,68.724 	"/>
	<polygon id="b0017_1_" style="fill:#FFFFFF;" points="74.172,83.724 70.422,88.724 66.672,83.724 70.422,78.724 	"/>
	<polygon id="b0016_1_" style="fill:#FFFFFF;" points="74.172,93.724 70.422,98.724 66.672,93.724 70.422,88.724 	"/>
	<polygon id="b0022_1_" style="fill:#FFFFFF;" points="77.922,68.724 74.172,73.724 70.422,68.724 74.172,63.724 	"/>
	<polygon id="b0023_1_" style="fill:#FFFFFF;" points="77.922,78.724 74.172,83.724 70.422,78.724 74.172,73.724 	"/>
	<polygon id="b0018_1_" style="fill:#FFFFFF;" points="77.922,88.724 74.172,93.724 70.422,88.724 74.172,83.724 	"/>
	<polygon id="b0043" style="fill:#FFFFFF;" points="81.672,63.724 77.922,68.724 74.172,63.724 77.922,58.724 	"/>
	<polygon id="b0024_1_" style="fill:#FFFFFF;" points="81.672,73.724 77.922,78.724 74.172,73.724 77.922,68.724 	"/>
	<polygon id="b0019_1_" style="fill:#FFFFFF;" points="81.672,83.724 77.922,88.724 74.172,83.724 77.922,78.724 	"/>
	<polygon id="b0025" style="fill:#FFFFFF;" points="85.422,68.724 81.672,73.724 77.922,68.724 81.672,63.724 	"/>
	<polygon id="b0020_1_" style="fill:#FFFFFF;" points="85.422,78.724 81.672,83.724 77.922,78.724 81.672,73.724 	"/>
	<polygon id="b0045" style="fill:#FFFFFF;" points="89.172,63.724 85.422,68.724 81.672,63.724 85.422,58.724 	"/>
	<polygon id="b0026" style="fill:#FFFFFF;" points="89.172,73.724 85.422,78.724 81.672,73.724 85.422,68.724 	"/>
	<polygon id="b0027" style="fill:#FFFFFF;" points="92.922,68.724 89.172,73.724 85.422,68.724 89.172,63.724 	"/>
	<polygon id="b0034" style="fill:#FFFFFF;" points="55.422,58.724 51.672,63.724 47.922,58.724 51.672,53.724 	"/>
	<polygon id="b0036_1_" style="fill:#FFFFFF;" points="59.172,53.724 55.422,58.724 51.672,53.724 55.422,48.724 	"/>
	<polygon id="b0037" style="fill:#FFFFFF;" points="62.922,58.724 59.172,63.724 55.422,58.724 59.172,53.724 	"/>
	<polygon id="b0039" style="fill:#FFFFFF;" points="66.672,53.724 62.922,58.724 59.172,53.724 62.922,48.724 	"/>
	<polygon id="b0040" style="fill:#FFFFFF;" points="70.422,58.724 66.672,63.724 62.922,58.724 66.672,53.724 	"/>
	<polygon id="b0049" style="fill:#FFFFFF;" points="74.172,53.724 70.422,58.724 66.672,53.724 70.422,48.724 	"/>
	<polygon id="b0042" style="fill:#FFFFFF;" points="77.922,58.724 74.172,63.724 70.422,58.724 74.172,53.724 	"/>
	<polygon id="b0050" style="fill:#FFFFFF;" points="81.672,53.724 77.922,58.724 74.172,53.724 77.922,48.724 	"/>
	<polygon id="b0044" style="fill:#FFFFFF;" points="85.422,58.724 81.672,63.724 77.922,58.724 81.672,53.724 	"/>
	<polygon id="b0053" style="fill:#FFFFFF;" points="102.379,26.786 98.629,31.786 94.879,26.786 98.629,21.786 	"/>
	<polygon id="b0055" style="fill:#FFFFFF;" points="109.879,26.786 106.129,31.786 102.379,26.786 106.129,21.786 	"/>
	<polygon id="b0029_1_" style="fill:#FFFFFF;" points="44.172,63.724 40.422,68.724 36.672,63.724 40.422,58.724 	"/>
	<polygon id="b0031" style="fill:#FFFFFF;" points="47.922,58.724 44.172,63.724 40.422,58.724 44.172,53.724 	"/>
	<polygon id="b0028" style="fill:#FFFFFF;" points="40.422,58.724 36.672,63.724 32.922,58.724 36.672,53.724 	"/>
	<polygon id="b0030" style="fill:#FFFFFF;" points="44.172,53.724 40.422,58.724 36.672,53.724 40.422,48.724 	"/>
	<polygon id="b0033" style="fill:#FFFFFF;" points="51.672,53.724 47.922,58.724 44.172,53.724 47.922,48.724 	"/>
	<polygon id="b0047" style="fill:#FFFFFF;" points="96.672,63.724 92.922,68.724 89.172,63.724 92.922,58.724 	"/>
	<polygon id="b0054" style="fill:#FFFFFF;" points="106.129,31.786 102.379,36.786 98.629,31.786 102.379,26.786 	"/>
	<polygon id="b0051" style="fill:#FFFFFF;" points="89.172,53.724 85.422,58.724 81.672,53.724 85.422,48.724 	"/>
	<polygon id="b0046" style="fill:#FFFFFF;" points="92.922,58.724 89.172,63.724 85.422,58.724 89.172,53.724 	"/>
	<polygon id="b0048" style="fill:#FFFFFF;" points="100.422,58.724 96.672,63.724 92.922,58.724 96.672,53.724 	"/>
	<polygon id="b0052" style="fill:#FFFFFF;" points="96.672,53.724 92.922,58.724 89.172,53.724 92.922,48.724 	"/>
</g>
<g id="VuMark-Origin">
	
		<circle id="VuMark_Origin_Locator" style="fill:none;stroke:#EC008C;stroke-width:0.75;stroke-miterlimit:10;" cx="66.672" cy="113.724" r="10"/>
</g>
<g id="VuMark-Contour">
	<polygon id="contour_2_" style="fill:none;stroke:#EC008C;stroke-miterlimit:10;" points="121.152,10.334 115.462,122.034 
		91.792,119.534 91.712,80.594 66.672,113.724 41.632,80.594 41.552,119.534 17.882,122.024 12.182,10.334 49.842,10.334 
		66.672,43.854 83.492,10.334 	"/>
</g>
<g id="VuMark-AsymmetryMarker">
</g>
<g id="VuMark-Feedback">
	
		<circle id="c0015_2_" style="fill:none;stroke:#EC008C;stroke-width:0.75;stroke-miterlimit:10;" cx="66.672" cy="98.724" r="2.25"/>
	
		<circle id="c0016_2_" style="fill:none;stroke:#EC008C;stroke-width:0.75;stroke-miterlimit:10;" cx="70.422" cy="93.724" r="2.25"/>
	
		<circle id="c0005_2_" style="fill:none;stroke:#EC008C;stroke-width:0.75;stroke-miterlimit:10;" cx="62.922" cy="93.724" r="2.25"/>
	
		<circle id="c0018_2_" style="fill:none;stroke:#EC008C;stroke-width:0.75;stroke-miterlimit:10;" cx="74.172" cy="88.724" r="2.25"/>
	
		<circle id="c0014_2_" style="fill:none;stroke:#EC008C;stroke-width:0.75;stroke-miterlimit:10;" cx="66.672" cy="88.724" r="2.25"/>
	
		<circle id="c0003_2_" style="fill:none;stroke:#EC008C;stroke-width:0.75;stroke-miterlimit:10;" cx="59.172" cy="88.724" r="2.25"/>
	
		<circle id="c0019_2_" style="fill:none;stroke:#EC008C;stroke-width:0.75;stroke-miterlimit:10;" cx="77.922" cy="83.724" r="2.25"/>
	
		<circle id="c0017_2_" style="fill:none;stroke:#EC008C;stroke-width:0.75;stroke-miterlimit:10;" cx="70.422" cy="83.724" r="2.25"/>
	
		<circle id="c0004_2_" style="fill:none;stroke:#EC008C;stroke-width:0.75;stroke-miterlimit:10;" cx="62.922" cy="83.724" r="2.25"/>
	
		<circle id="c0001_2_" style="fill:none;stroke:#EC008C;stroke-width:0.75;stroke-miterlimit:10;" cx="55.422" cy="83.724" r="2.25"/>
	
		<circle id="c0020_2_" style="fill:none;stroke:#EC008C;stroke-width:0.75;stroke-miterlimit:10;" cx="81.672" cy="78.724" r="2.25"/>
	
		<circle id="c0023_2_" style="fill:none;stroke:#EC008C;stroke-width:0.75;stroke-miterlimit:10;" cx="74.172" cy="78.724" r="2.25"/>
	
		<circle id="c0006_2_" style="fill:none;stroke:#EC008C;stroke-width:0.75;stroke-miterlimit:10;" cx="66.672" cy="78.724" r="2.25"/>
	
		<circle id="c0002_2_" style="fill:none;stroke:#EC008C;stroke-width:0.75;stroke-miterlimit:10;" cx="59.172" cy="78.724" r="2.25"/>
	
		<circle id="c0000_2_" style="fill:none;stroke:#EC008C;stroke-width:0.75;stroke-miterlimit:10;" cx="51.672" cy="78.724" r="2.25"/>
	
		<circle id="c0026_2_" style="fill:none;stroke:#EC008C;stroke-width:0.75;stroke-miterlimit:10;" cx="85.422" cy="73.724" r="2.25"/>
	
		<circle id="c0024_2_" style="fill:none;stroke:#EC008C;stroke-width:0.75;stroke-miterlimit:10;" cx="77.922" cy="73.724" r="2.25"/>
	
		<circle id="c0021_2_" style="fill:none;stroke:#EC008C;stroke-width:0.75;stroke-miterlimit:10;" cx="70.422" cy="73.724" r="2.25"/>
	
		<circle id="c0012_2_" style="fill:none;stroke:#EC008C;stroke-width:0.75;stroke-miterlimit:10;" cx="62.922" cy="73.724" r="2.25"/>
	
		<circle id="c0010_2_" style="fill:none;stroke:#EC008C;stroke-width:0.75;stroke-miterlimit:10;" cx="55.422" cy="73.724" r="2.25"/>
	
		<circle id="c0008_2_" style="fill:none;stroke:#EC008C;stroke-width:0.75;stroke-miterlimit:10;" cx="47.922" cy="73.724" r="2.25"/>
	
		<circle id="c0027_2_" style="fill:none;stroke:#EC008C;stroke-width:0.75;stroke-miterlimit:10;" cx="89.172" cy="68.724" r="2.25"/>
	
		<circle id="c0025_2_" style="fill:none;stroke:#EC008C;stroke-width:0.75;stroke-miterlimit:10;" cx="81.672" cy="68.724" r="2.25"/>
	
		<circle id="c0022_2_" style="fill:none;stroke:#EC008C;stroke-width:0.75;stroke-miterlimit:10;" cx="74.172" cy="68.724" r="2.25"/>
	
		<circle id="c0013_2_" style="fill:none;stroke:#EC008C;stroke-width:0.75;stroke-miterlimit:10;" cx="66.672" cy="68.724" r="2.25"/>
	
		<circle id="c0011_2_" style="fill:none;stroke:#EC008C;stroke-width:0.75;stroke-miterlimit:10;" cx="59.172" cy="68.724" r="2.25"/>
	
		<circle id="c0009_2_" style="fill:none;stroke:#EC008C;stroke-width:0.75;stroke-miterlimit:10;" cx="51.672" cy="68.724" r="2.25"/>
	
		<circle id="c0007_2_" style="fill:none;stroke:#EC008C;stroke-width:0.75;stroke-miterlimit:10;" cx="44.172" cy="68.724" r="2.25"/>
	
		<circle id="c0047_2_" style="fill:none;stroke:#EC008C;stroke-width:0.75;stroke-miterlimit:10;" cx="92.922" cy="63.724" r="2.25"/>
	
		<circle id="c0045_2_" style="fill:none;stroke:#EC008C;stroke-width:0.75;stroke-miterlimit:10;" cx="85.422" cy="63.724" r="2.25"/>
	
		<circle id="c0043_2_" style="fill:none;stroke:#EC008C;stroke-width:0.75;stroke-miterlimit:10;" cx="77.922" cy="63.724" r="2.25"/>
	
		<circle id="c0041_2_" style="fill:none;stroke:#EC008C;stroke-width:0.75;stroke-miterlimit:10;" cx="70.422" cy="63.724" r="2.25"/>
	
		<circle id="c0038_2_" style="fill:none;stroke:#EC008C;stroke-width:0.75;stroke-miterlimit:10;" cx="62.922" cy="63.724" r="2.25"/>
	
		<circle id="c0035_2_" style="fill:none;stroke:#EC008C;stroke-width:0.75;stroke-miterlimit:10;" cx="55.422" cy="63.724" r="2.25"/>
	
		<circle id="c0032_2_" style="fill:none;stroke:#EC008C;stroke-width:0.75;stroke-miterlimit:10;" cx="47.922" cy="63.724" r="2.25"/>
	
		<circle id="c0029_2_" style="fill:none;stroke:#EC008C;stroke-width:0.75;stroke-miterlimit:10;" cx="40.422" cy="63.724" r="2.25"/>
	
		<circle id="c0048_2_" style="fill:none;stroke:#EC008C;stroke-width:0.75;stroke-miterlimit:10;" cx="96.672" cy="58.724" r="2.25"/>
	
		<circle id="c0046_2_" style="fill:none;stroke:#EC008C;stroke-width:0.75;stroke-miterlimit:10;" cx="89.172" cy="58.724" r="2.25"/>
	
		<circle id="c0044_2_" style="fill:none;stroke:#EC008C;stroke-width:0.75;stroke-miterlimit:10;" cx="81.672" cy="58.724" r="2.25"/>
	
		<circle id="c0042_2_" style="fill:none;stroke:#EC008C;stroke-width:0.75;stroke-miterlimit:10;" cx="74.172" cy="58.724" r="2.25"/>
	
		<circle id="c0040_2_" style="fill:none;stroke:#EC008C;stroke-width:0.75;stroke-miterlimit:10;" cx="66.672" cy="58.724" r="2.25"/>
	
		<circle id="c0037_2_" style="fill:none;stroke:#EC008C;stroke-width:0.75;stroke-miterlimit:10;" cx="59.172" cy="58.724" r="2.25"/>
	
		<circle id="c0034_2_" style="fill:none;stroke:#EC008C;stroke-width:0.75;stroke-miterlimit:10;" cx="51.672" cy="58.724" r="2.25"/>
	
		<circle id="c0031_2_" style="fill:none;stroke:#EC008C;stroke-width:0.75;stroke-miterlimit:10;" cx="44.172" cy="58.724" r="2.25"/>
	
		<circle id="c0028_2_" style="fill:none;stroke:#EC008C;stroke-width:0.75;stroke-miterlimit:10;" cx="36.672" cy="58.724" r="2.25"/>
	
		<circle id="c0052_2_" style="fill:none;stroke:#EC008C;stroke-width:0.75;stroke-miterlimit:10;" cx="92.922" cy="53.724" r="2.25"/>
	
		<circle id="c0051_2_" style="fill:none;stroke:#EC008C;stroke-width:0.75;stroke-miterlimit:10;" cx="85.422" cy="53.724" r="2.25"/>
	
		<circle id="c0050_2_" style="fill:none;stroke:#EC008C;stroke-width:0.75;stroke-miterlimit:10;" cx="77.922" cy="53.724" r="2.25"/>
	
		<circle id="c0049_2_" style="fill:none;stroke:#EC008C;stroke-width:0.75;stroke-miterlimit:10;" cx="70.422" cy="53.724" r="2.25"/>
	
		<circle id="c0039_2_" style="fill:none;stroke:#EC008C;stroke-width:0.75;stroke-miterlimit:10;" cx="62.922" cy="53.724" r="2.25"/>
	
		<circle id="c0036_2_" style="fill:none;stroke:#EC008C;stroke-width:0.75;stroke-miterlimit:10;" cx="55.422" cy="53.724" r="2.25"/>
	
		<circle id="c0033_2_" style="fill:none;stroke:#EC008C;stroke-width:0.75;stroke-miterlimit:10;" cx="47.922" cy="53.724" r="2.25"/>
	
		<circle id="c0030_2_" style="fill:none;stroke:#EC008C;stroke-width:0.75;stroke-miterlimit:10;" cx="40.422" cy="53.724" r="2.25"/>
	
		<circle id="c0054_2_" style="fill:none;stroke:#EC008C;stroke-width:0.75;stroke-miterlimit:10;" cx="102.379" cy="31.786" r="2.25"/>
	
		<circle id="c0053_2_" style="fill:none;stroke:#EC008C;stroke-width:0.75;stroke-miterlimit:10;" cx="98.629" cy="26.786" r="2.25"/>
	
		<circle id="c0055_2_" style="fill:none;stroke:#EC008C;stroke-width:0.75;stroke-miterlimit:10;" cx="106.129" cy="26.786" r="2.25"/>
	<path id="MinimumContourClearSpace_2_" style="opacity:0.5;fill-rule:evenodd;clip-rule:evenodd;fill:#EC008C;" d="M87.3,123.585
		l-0.062-29.609l-20.567,27.212L46.104,93.975l-0.061,29.611l-32.414,3.41L7.446,5.834h45.171l14.053,27.989L80.715,5.834h45.172
		l-6.173,121.174L87.3,123.585z M96.283,115.483l-0.099-48.269l-29.513,39.047L37.159,67.214l-0.099,48.267l-14.926,1.57
		L16.917,14.834h30.148l19.607,39.051l19.596-39.051h30.148l-5.207,102.225L96.283,115.483z"/>
</g>
<g id="VuMark-Description">
	<g id="VuMark:MortonTuxedos">
		<path d="M-561.647-256.19l-2.639-8.084h1.127l1.259,3.982c0.348,1.091,0.648,2.074,0.864,3.022h0.024
			c0.228-0.936,0.563-1.955,0.923-3.011l1.367-3.994h1.116l-2.891,8.084H-561.647z"/>
		<path d="M-552.12-257.773c0,0.6,0.012,1.127,0.048,1.583h-0.936l-0.06-0.947h-0.024c-0.276,0.468-0.887,1.079-1.919,1.079
			c-0.911,0-2.003-0.504-2.003-2.543v-3.394h1.056v3.214c0,1.104,0.336,1.848,1.295,1.848c0.708,0,1.199-0.492,1.391-0.96
			c0.06-0.156,0.096-0.348,0.096-0.54v-3.562h1.056V-257.773z"/>
		<path d="M-543.518-259.74c-0.06-1.128-0.132-2.482-0.12-3.49h-0.036c-0.276,0.947-0.612,1.955-1.02,3.07l-1.427,3.922h-0.792
			l-1.307-3.85c-0.384-1.14-0.708-2.184-0.936-3.143h-0.024c-0.024,1.008-0.084,2.362-0.156,3.574l-0.216,3.466h-0.995l0.563-8.084
			h1.332l1.379,3.91c0.336,0.995,0.612,1.883,0.815,2.723h0.036c0.204-0.815,0.492-1.703,0.852-2.723l1.439-3.91h1.331l0.504,8.084
			h-1.02L-543.518-259.74z"/>
		<path d="M-537.431-256.19l-0.084-0.731h-0.036c-0.324,0.456-0.947,0.863-1.775,0.863c-1.175,0-1.775-0.827-1.775-1.667
			c0-1.403,1.247-2.171,3.49-2.159v-0.119c0-0.48-0.132-1.344-1.319-1.344c-0.54,0-1.103,0.168-1.511,0.432l-0.24-0.695
			c0.48-0.312,1.176-0.516,1.907-0.516c1.775,0,2.207,1.211,2.207,2.374v2.171c0,0.504,0.024,0.996,0.096,1.392H-537.431z
			 M-537.587-259.152c-1.151-0.024-2.459,0.18-2.459,1.307c0,0.684,0.456,1.008,0.996,1.008c0.755,0,1.235-0.479,1.403-0.972
			c0.036-0.107,0.06-0.228,0.06-0.336V-259.152z"/>
		<path d="M-534.862-260.184c0-0.684-0.012-1.271-0.048-1.811h0.923l0.036,1.14h0.048c0.264-0.78,0.899-1.271,1.607-1.271
			c0.12,0,0.204,0.012,0.3,0.036v0.995c-0.108-0.024-0.216-0.036-0.36-0.036c-0.744,0-1.271,0.563-1.416,1.355
			c-0.024,0.144-0.048,0.312-0.048,0.491v3.095h-1.043V-260.184z"/>
		<path d="M-529.846-259.332h0.024c0.144-0.203,0.348-0.455,0.516-0.659l1.703-2.003h1.271l-2.243,2.387l2.554,3.418h-1.283
			l-2.003-2.782l-0.54,0.6v2.183h-1.043v-8.516h1.043V-259.332z"/>
		<path d="M-525.394-261.035c0-0.443,0.3-0.755,0.72-0.755s0.696,0.312,0.708,0.755c0,0.42-0.276,0.744-0.72,0.744
			C-525.106-260.291-525.394-260.616-525.394-261.035z M-525.394-256.801c0-0.444,0.3-0.756,0.72-0.756s0.696,0.312,0.708,0.756
			c0,0.42-0.276,0.743-0.72,0.743C-525.106-256.058-525.394-256.381-525.394-256.801z"/>
		<path d="M-508.179-259.74c-0.06-1.128-0.132-2.482-0.12-3.49h-0.036c-0.276,0.947-0.612,1.955-1.02,3.07l-1.427,3.922h-0.792
			l-1.307-3.85c-0.384-1.14-0.708-2.184-0.936-3.143h-0.024c-0.024,1.008-0.084,2.362-0.156,3.574l-0.216,3.466h-0.995l0.563-8.084
			h1.331l1.379,3.91c0.336,0.995,0.612,1.883,0.815,2.723h0.036c0.204-0.815,0.492-1.703,0.852-2.723l1.439-3.91h1.331l0.504,8.084
			h-1.02L-508.179-259.74z"/>
		<path d="M-500.054-259.14c0,2.146-1.487,3.082-2.89,3.082c-1.571,0-2.783-1.151-2.783-2.986c0-1.942,1.271-3.082,2.878-3.082
			C-501.181-262.126-500.054-260.915-500.054-259.14z M-504.66-259.08c0,1.271,0.732,2.231,1.763,2.231
			c1.007,0,1.763-0.948,1.763-2.255c0-0.983-0.492-2.231-1.739-2.231C-504.119-261.335-504.66-260.184-504.66-259.08z"/>
		<path d="M-498.719-260.184c0-0.684-0.012-1.271-0.048-1.811h0.923l0.036,1.14h0.048c0.264-0.78,0.899-1.271,1.607-1.271
			c0.12,0,0.204,0.012,0.3,0.036v0.995c-0.108-0.024-0.216-0.036-0.359-0.036c-0.744,0-1.271,0.563-1.416,1.355
			c-0.024,0.144-0.048,0.312-0.048,0.491v3.095h-1.043V-260.184z"/>
		<path d="M-493.236-263.661v1.667h1.511v0.804h-1.511v3.13c0,0.72,0.204,1.128,0.792,1.128c0.276,0,0.479-0.036,0.612-0.072
			l0.048,0.791c-0.204,0.084-0.528,0.145-0.936,0.145c-0.492,0-0.888-0.156-1.14-0.444c-0.3-0.312-0.408-0.827-0.408-1.511v-3.166
			h-0.899v-0.804h0.899v-1.392L-493.236-263.661z"/>
		<path d="M-485.354-259.14c0,2.146-1.487,3.082-2.89,3.082c-1.571,0-2.783-1.151-2.783-2.986c0-1.942,1.271-3.082,2.878-3.082
			C-486.481-262.126-485.354-260.915-485.354-259.14z M-489.96-259.08c0,1.271,0.732,2.231,1.763,2.231
			c1.007,0,1.763-0.948,1.763-2.255c0-0.983-0.492-2.231-1.739-2.231C-489.42-261.335-489.96-260.184-489.96-259.08z"/>
		<path d="M-484.019-260.423c0-0.6-0.012-1.092-0.048-1.571h0.936l0.06,0.959h0.024c0.288-0.552,0.959-1.091,1.919-1.091
			c0.803,0,2.051,0.479,2.051,2.471v3.466h-1.056v-3.346c0-0.936-0.348-1.716-1.343-1.716c-0.695,0-1.235,0.492-1.415,1.08
			c-0.048,0.132-0.072,0.312-0.072,0.491v3.49h-1.056V-260.423z"/>
		<path d="M-476.388-263.386h-2.459v-0.888h5.985v0.888h-2.471v7.196h-1.055V-263.386z"/>
		<path d="M-467.678-257.773c0,0.6,0.012,1.127,0.048,1.583h-0.936l-0.06-0.947h-0.024c-0.276,0.468-0.887,1.079-1.919,1.079
			c-0.911,0-2.003-0.504-2.003-2.543v-3.394h1.056v3.214c0,1.104,0.336,1.848,1.295,1.848c0.708,0,1.199-0.492,1.391-0.96
			c0.06-0.156,0.096-0.348,0.096-0.54v-3.562h1.056V-257.773z"/>
		<path d="M-465.432-261.994l0.828,1.247c0.216,0.324,0.396,0.624,0.587,0.947h0.036c0.192-0.348,0.384-0.647,0.576-0.959
			l0.815-1.235h1.14l-1.979,2.807l2.039,2.998h-1.2l-0.851-1.308c-0.228-0.336-0.42-0.659-0.624-1.007h-0.024
			c-0.192,0.348-0.396,0.659-0.612,1.007l-0.839,1.308h-1.164l2.063-2.962l-1.967-2.843H-465.432z"/>
		<path d="M-459.96-258.901c0.024,1.428,0.935,2.016,1.991,2.016c0.755,0,1.211-0.132,1.607-0.3l0.18,0.755
			c-0.372,0.168-1.007,0.36-1.931,0.36c-1.787,0-2.854-1.176-2.854-2.927s1.032-3.13,2.723-3.13c1.895,0,2.399,1.667,2.399,2.734
			c0,0.216-0.024,0.384-0.036,0.491H-459.96z M-456.866-259.656c0.012-0.672-0.276-1.716-1.463-1.716
			c-1.067,0-1.535,0.984-1.619,1.716H-456.866z"/>
		<path d="M-449.522-264.705v7.017c0,0.516,0.012,1.104,0.048,1.499h-0.947l-0.048-1.008h-0.024c-0.324,0.648-1.032,1.14-1.979,1.14
			c-1.403,0-2.483-1.188-2.483-2.95c-0.012-1.931,1.188-3.118,2.603-3.118c0.888,0,1.487,0.42,1.751,0.888h0.024v-3.467H-449.522z
			 M-450.577-259.632c0-0.132-0.012-0.312-0.048-0.443c-0.156-0.672-0.731-1.224-1.523-1.224c-1.091,0-1.739,0.96-1.739,2.243
			c0,1.175,0.576,2.146,1.715,2.146c0.708,0,1.355-0.468,1.547-1.259c0.036-0.145,0.048-0.288,0.048-0.456V-259.632z"/>
		<path d="M-442.514-259.14c0,2.146-1.487,3.082-2.89,3.082c-1.571,0-2.783-1.151-2.783-2.986c0-1.942,1.271-3.082,2.878-3.082
			C-443.641-262.126-442.514-260.915-442.514-259.14z M-447.12-259.08c0,1.271,0.732,2.231,1.763,2.231
			c1.007,0,1.763-0.948,1.763-2.255c0-0.983-0.492-2.231-1.739-2.231C-446.58-261.335-447.12-260.184-447.12-259.08z"/>
		<path d="M-441.324-257.269c0.312,0.203,0.864,0.42,1.392,0.42c0.768,0,1.127-0.384,1.127-0.864c0-0.504-0.3-0.779-1.079-1.067
			c-1.043-0.371-1.535-0.947-1.535-1.643c0-0.936,0.755-1.703,2.003-1.703c0.587,0,1.104,0.168,1.427,0.359l-0.264,0.768
			c-0.228-0.144-0.647-0.336-1.187-0.336c-0.624,0-0.972,0.36-0.972,0.792c0,0.479,0.348,0.695,1.104,0.983
			c1.007,0.384,1.523,0.888,1.523,1.751c0,1.02-0.792,1.739-2.171,1.739c-0.635,0-1.223-0.156-1.631-0.396L-441.324-257.269z"/>
	</g>
	<g id="IDtype:string">
		<path d="M-562.378-249.274v8.084h-1.043v-8.084H-562.378z"/>
		<path d="M-560.554-249.165c0.636-0.096,1.391-0.168,2.219-0.168c1.499,0,2.566,0.348,3.274,1.008
			c0.72,0.659,1.14,1.595,1.14,2.902c0,1.319-0.408,2.398-1.164,3.142c-0.755,0.756-2.003,1.164-3.574,1.164
			c-0.744,0-1.367-0.036-1.895-0.097V-249.165z M-559.51-242.017c0.264,0.048,0.647,0.06,1.055,0.06c2.231,0,3.442-1.247,3.442-3.43
			c0.012-1.907-1.067-3.119-3.274-3.119c-0.54,0-0.947,0.049-1.223,0.108V-242.017z"/>
		<path d="M-551.122-248.661v1.667h1.511v0.804h-1.511v3.13c0,0.72,0.204,1.128,0.792,1.128c0.276,0,0.479-0.036,0.612-0.072
			l0.048,0.791c-0.204,0.084-0.528,0.145-0.936,0.145c-0.492,0-0.888-0.156-1.14-0.444c-0.3-0.312-0.408-0.827-0.408-1.511v-3.166
			h-0.899v-0.804h0.899v-1.392L-551.122-248.661z"/>
		<path d="M-547.93-246.994l1.271,3.43c0.132,0.384,0.276,0.84,0.372,1.188h0.024c0.108-0.348,0.228-0.791,0.372-1.211l1.151-3.406
			h1.115l-1.583,4.138c-0.756,1.991-1.271,3.011-1.991,3.634c-0.516,0.456-1.031,0.636-1.295,0.684l-0.264-0.888
			c0.264-0.084,0.612-0.252,0.924-0.516c0.288-0.228,0.647-0.636,0.887-1.175c0.048-0.108,0.084-0.192,0.084-0.252
			c0-0.061-0.024-0.145-0.072-0.276l-2.147-5.349H-547.93z"/>
		<path d="M-542.662-245.1c0-0.743-0.024-1.343-0.048-1.895h0.947l0.048,0.995h0.024c0.432-0.707,1.115-1.127,2.063-1.127
			c1.403,0,2.459,1.188,2.459,2.95c0,2.087-1.271,3.118-2.639,3.118c-0.768,0-1.439-0.336-1.787-0.911h-0.024v3.154h-1.043V-245.1z
			 M-541.619-243.552c0,0.155,0.024,0.3,0.048,0.432c0.192,0.731,0.828,1.235,1.583,1.235c1.115,0,1.763-0.912,1.763-2.243
			c0-1.163-0.611-2.159-1.727-2.159c-0.72,0-1.391,0.517-1.595,1.308c-0.036,0.132-0.072,0.288-0.072,0.432V-243.552z"/>
		<path d="M-535.247-243.901c0.024,1.428,0.935,2.016,1.991,2.016c0.755,0,1.211-0.132,1.607-0.3l0.18,0.755
			c-0.372,0.168-1.007,0.36-1.931,0.36c-1.787,0-2.854-1.176-2.854-2.927s1.032-3.13,2.723-3.13c1.895,0,2.399,1.667,2.399,2.734
			c0,0.216-0.024,0.384-0.036,0.491H-535.247z M-532.153-244.656c0.012-0.672-0.276-1.716-1.463-1.716
			c-1.067,0-1.535,0.984-1.619,1.716H-532.153z"/>
		<path d="M-530.075-246.035c0-0.443,0.3-0.755,0.72-0.755s0.696,0.312,0.708,0.755c0,0.42-0.276,0.744-0.72,0.744
			C-529.786-245.291-530.075-245.616-530.075-246.035z M-530.075-241.801c0-0.444,0.3-0.756,0.72-0.756s0.696,0.312,0.708,0.756
			c0,0.42-0.276,0.743-0.72,0.743C-529.786-241.058-530.075-241.381-530.075-241.801z"/>
		<path d="M-519.851-242.269c0.312,0.203,0.864,0.42,1.392,0.42c0.768,0,1.127-0.384,1.127-0.864c0-0.504-0.3-0.779-1.079-1.067
			c-1.043-0.371-1.535-0.947-1.535-1.643c0-0.936,0.755-1.703,2.003-1.703c0.587,0,1.103,0.168,1.427,0.359l-0.264,0.768
			c-0.228-0.144-0.647-0.336-1.187-0.336c-0.624,0-0.972,0.36-0.972,0.792c0,0.479,0.348,0.695,1.104,0.983
			c1.007,0.384,1.523,0.888,1.523,1.751c0,1.02-0.792,1.739-2.171,1.739c-0.635,0-1.223-0.156-1.631-0.396L-519.851-242.269z"/>
		<path d="M-513.684-248.661v1.667h1.511v0.804h-1.511v3.13c0,0.72,0.204,1.128,0.792,1.128c0.276,0,0.479-0.036,0.612-0.072
			l0.048,0.791c-0.204,0.084-0.528,0.145-0.936,0.145c-0.492,0-0.888-0.156-1.14-0.444c-0.3-0.312-0.408-0.827-0.408-1.511v-3.166
			h-0.899v-0.804h0.899v-1.392L-513.684-248.661z"/>
		<path d="M-510.983-245.184c0-0.684-0.012-1.271-0.048-1.811h0.923l0.036,1.14h0.048c0.264-0.78,0.899-1.271,1.607-1.271
			c0.12,0,0.204,0.012,0.3,0.036v0.995c-0.108-0.024-0.216-0.036-0.36-0.036c-0.744,0-1.271,0.563-1.416,1.355
			c-0.024,0.144-0.048,0.312-0.048,0.491v3.095h-1.043V-245.184z"/>
		<path d="M-505.836-248.625c0.012,0.359-0.252,0.647-0.671,0.647c-0.372,0-0.636-0.288-0.636-0.647c0-0.372,0.276-0.66,0.66-0.66
			C-506.088-249.285-505.836-248.997-505.836-248.625z M-507.012-241.19v-5.805h1.056v5.805H-507.012z"/>
		<path d="M-504.203-245.423c0-0.6-0.012-1.092-0.048-1.571h0.936l0.06,0.959h0.024c0.288-0.552,0.959-1.091,1.919-1.091
			c0.803,0,2.051,0.479,2.051,2.471v3.466h-1.056v-3.346c0-0.936-0.348-1.716-1.343-1.716c-0.695,0-1.235,0.492-1.415,1.08
			c-0.048,0.132-0.072,0.312-0.072,0.491v3.49h-1.056V-245.423z"/>
		<path d="M-492.542-246.994c-0.024,0.42-0.048,0.888-0.048,1.595v3.37c0,1.332-0.264,2.147-0.827,2.65
			c-0.564,0.528-1.379,0.696-2.111,0.696c-0.696,0-1.463-0.168-1.931-0.479l0.264-0.804c0.384,0.239,0.984,0.455,1.703,0.455
			c1.08,0,1.871-0.563,1.871-2.026v-0.647h-0.024c-0.324,0.539-0.948,0.971-1.847,0.971c-1.439,0-2.471-1.223-2.471-2.83
			c0-1.967,1.284-3.082,2.615-3.082c1.007,0,1.559,0.527,1.811,1.007h0.024l0.048-0.875H-492.542z M-493.634-244.703
			c0-0.181-0.012-0.336-0.06-0.48c-0.192-0.611-0.708-1.115-1.476-1.115c-1.007,0-1.727,0.852-1.727,2.195
			c0,1.139,0.576,2.087,1.715,2.087c0.647,0,1.235-0.408,1.463-1.08c0.06-0.18,0.084-0.384,0.084-0.563V-244.703z"/>
	</g>
	<g id="IDlength:4">
		<path d="M-562.378-234.274v8.084h-1.043v-8.084H-562.378z"/>
		<path d="M-560.554-234.165c0.636-0.096,1.391-0.168,2.219-0.168c1.499,0,2.566,0.348,3.274,1.008
			c0.72,0.659,1.14,1.595,1.14,2.902c0,1.319-0.408,2.398-1.164,3.142c-0.755,0.756-2.003,1.164-3.574,1.164
			c-0.744,0-1.367-0.036-1.895-0.097V-234.165z M-559.51-227.017c0.264,0.048,0.647,0.06,1.055,0.06c2.231,0,3.442-1.247,3.442-3.43
			c0.012-1.907-1.067-3.119-3.274-3.119c-0.54,0-0.947,0.049-1.223,0.108V-227.017z"/>
		<path d="M-552.598-234.705h1.056v8.516h-1.056V-234.705z"/>
		<path d="M-549.178-228.901c0.024,1.428,0.936,2.016,1.991,2.016c0.755,0,1.211-0.132,1.607-0.3l0.18,0.755
			c-0.372,0.168-1.007,0.36-1.931,0.36c-1.787,0-2.854-1.176-2.854-2.927s1.032-3.13,2.723-3.13c1.895,0,2.399,1.667,2.399,2.734
			c0,0.216-0.024,0.384-0.036,0.491H-549.178z M-546.084-229.656c0.012-0.672-0.276-1.716-1.463-1.716
			c-1.067,0-1.535,0.984-1.619,1.716H-546.084z"/>
		<path d="M-543.754-230.423c0-0.6-0.012-1.092-0.048-1.571h0.936l0.06,0.959h0.024c0.288-0.552,0.959-1.091,1.919-1.091
			c0.803,0,2.051,0.479,2.051,2.471v3.466h-1.056v-3.346c0-0.936-0.348-1.716-1.343-1.716c-0.695,0-1.235,0.492-1.415,1.08
			c-0.048,0.132-0.072,0.312-0.072,0.491v3.49h-1.056V-230.423z"/>
		<path d="M-532.093-231.994c-0.024,0.42-0.048,0.888-0.048,1.595v3.37c0,1.332-0.264,2.147-0.827,2.65
			c-0.564,0.528-1.379,0.696-2.111,0.696c-0.696,0-1.463-0.168-1.931-0.479l0.264-0.804c0.384,0.239,0.984,0.455,1.703,0.455
			c1.08,0,1.871-0.563,1.871-2.026v-0.647h-0.024c-0.324,0.539-0.948,0.971-1.847,0.971c-1.439,0-2.471-1.223-2.471-2.83
			c0-1.967,1.284-3.082,2.615-3.082c1.007,0,1.559,0.527,1.811,1.007h0.024l0.048-0.875H-532.093z M-533.185-229.703
			c0-0.181-0.012-0.336-0.06-0.48c-0.192-0.611-0.708-1.115-1.476-1.115c-1.007,0-1.727,0.852-1.727,2.195
			c0,1.139,0.576,2.087,1.715,2.087c0.647,0,1.235-0.408,1.463-1.08c0.06-0.18,0.084-0.384,0.084-0.563V-229.703z"/>
		<path d="M-529.115-233.661v1.667h1.511v0.804h-1.511v3.13c0,0.72,0.204,1.128,0.792,1.128c0.276,0,0.479-0.036,0.611-0.072
			l0.048,0.791c-0.204,0.084-0.528,0.145-0.936,0.145c-0.492,0-0.888-0.156-1.14-0.444c-0.3-0.312-0.408-0.827-0.408-1.511v-3.166
			h-0.899v-0.804h0.899v-1.392L-529.115-233.661z"/>
		<path d="M-526.414-234.705h1.056v3.622h0.024c0.168-0.3,0.432-0.563,0.755-0.743c0.312-0.18,0.684-0.3,1.08-0.3
			c0.779,0,2.027,0.479,2.027,2.482v3.454h-1.056v-3.334c0-0.936-0.348-1.728-1.343-1.728c-0.684,0-1.223,0.48-1.415,1.056
			c-0.06,0.144-0.072,0.3-0.072,0.504v3.502h-1.056V-234.705z"/>
		<path d="M-520.007-231.035c0-0.443,0.3-0.755,0.72-0.755s0.696,0.312,0.708,0.755c0,0.42-0.276,0.744-0.72,0.744
			C-519.719-230.291-520.007-230.616-520.007-231.035z M-520.007-226.801c0-0.444,0.3-0.756,0.72-0.756s0.696,0.312,0.708,0.756
			c0,0.42-0.276,0.743-0.72,0.743C-519.719-226.058-520.007-226.381-520.007-226.801z"/>
		<path d="M-506.713-226.19v-2.123h-3.622v-0.695l3.479-4.978h1.139v4.846h1.091v0.827h-1.091v2.123H-506.713z M-506.713-229.14
			v-2.603c0-0.408,0.012-0.815,0.036-1.224h-0.036c-0.24,0.456-0.432,0.792-0.647,1.151l-1.907,2.65v0.024H-506.713z"/>
	</g>
	<g id="Elements:56">
		<path d="M-559.236-214.98h-3.142v2.914h3.502v0.876h-4.545v-8.084h4.366v0.876h-3.322v2.555h3.142V-214.98z"/>
		<path d="M-557.554-219.705h1.056v8.516h-1.056V-219.705z"/>
		<path d="M-554.134-213.901c0.024,1.428,0.936,2.016,1.991,2.016c0.755,0,1.211-0.132,1.607-0.3l0.18,0.755
			c-0.372,0.168-1.007,0.36-1.931,0.36c-1.787,0-2.854-1.176-2.854-2.927s1.032-3.13,2.723-3.13c1.895,0,2.399,1.667,2.399,2.734
			c0,0.216-0.024,0.384-0.036,0.491H-554.134z M-551.04-214.656c0.012-0.672-0.276-1.716-1.463-1.716
			c-1.067,0-1.535,0.984-1.619,1.716H-551.04z"/>
		<path d="M-548.71-215.423c0-0.6-0.012-1.092-0.048-1.571h0.923l0.048,0.936h0.036c0.324-0.552,0.864-1.067,1.823-1.067
			c0.792,0,1.391,0.479,1.643,1.163h0.024c0.18-0.324,0.408-0.575,0.647-0.756c0.348-0.264,0.731-0.407,1.283-0.407
			c0.768,0,1.907,0.504,1.907,2.519v3.418h-1.032v-3.286c0-1.115-0.408-1.787-1.259-1.787c-0.6,0-1.067,0.443-1.247,0.96
			c-0.048,0.144-0.084,0.335-0.084,0.527v3.586h-1.032v-3.479c0-0.923-0.408-1.595-1.211-1.595c-0.66,0-1.14,0.527-1.308,1.056
			c-0.06,0.155-0.084,0.336-0.084,0.516v3.502h-1.031V-215.423z"/>
		<path d="M-538.114-213.901c0.024,1.428,0.935,2.016,1.991,2.016c0.755,0,1.211-0.132,1.607-0.3l0.18,0.755
			c-0.372,0.168-1.007,0.36-1.931,0.36c-1.787,0-2.854-1.176-2.854-2.927s1.032-3.13,2.723-3.13c1.895,0,2.399,1.667,2.399,2.734
			c0,0.216-0.024,0.384-0.036,0.491H-538.114z M-535.02-214.656c0.012-0.672-0.276-1.716-1.463-1.716
			c-1.067,0-1.535,0.984-1.619,1.716H-535.02z"/>
		<path d="M-532.69-215.423c0-0.6-0.012-1.092-0.048-1.571h0.936l0.06,0.959h0.024c0.288-0.552,0.959-1.091,1.919-1.091
			c0.803,0,2.051,0.479,2.051,2.471v3.466h-1.056v-3.346c0-0.936-0.348-1.716-1.343-1.716c-0.695,0-1.235,0.492-1.415,1.08
			c-0.048,0.132-0.072,0.312-0.072,0.491v3.49h-1.056V-215.423z"/>
		<path d="M-524.807-218.661v1.667h1.511v0.804h-1.511v3.13c0,0.72,0.204,1.128,0.792,1.128c0.276,0,0.479-0.036,0.612-0.072
			l0.048,0.791c-0.204,0.084-0.528,0.145-0.936,0.145c-0.492,0-0.888-0.156-1.14-0.444c-0.3-0.312-0.408-0.827-0.408-1.511v-3.166
			h-0.899v-0.804h0.899v-1.392L-524.807-218.661z"/>
		<path d="M-522.25-212.269c0.312,0.203,0.864,0.42,1.392,0.42c0.768,0,1.127-0.384,1.127-0.864c0-0.504-0.3-0.779-1.079-1.067
			c-1.043-0.371-1.535-0.947-1.535-1.643c0-0.936,0.755-1.703,2.003-1.703c0.587,0,1.104,0.168,1.427,0.359l-0.264,0.768
			c-0.228-0.144-0.647-0.336-1.187-0.336c-0.624,0-0.972,0.36-0.972,0.792c0,0.479,0.348,0.695,1.104,0.983
			c1.007,0.384,1.523,0.888,1.523,1.751c0,1.02-0.792,1.739-2.171,1.739c-0.635,0-1.223-0.156-1.631-0.396L-522.25-212.269z"/>
		<path d="M-514.81-215.184c0-0.684-0.012-1.271-0.048-1.811h0.923l0.036,1.14h0.048c0.264-0.78,0.899-1.271,1.607-1.271
			c0.12,0,0.204,0.012,0.3,0.036v0.995c-0.108-0.024-0.216-0.036-0.36-0.036c-0.744,0-1.271,0.563-1.416,1.355
			c-0.024,0.144-0.048,0.312-0.048,0.491v3.095h-1.043V-215.184z"/>
		<path d="M-510.419-213.901c0.024,1.428,0.935,2.016,1.991,2.016c0.755,0,1.211-0.132,1.607-0.3l0.18,0.755
			c-0.372,0.168-1.007,0.36-1.931,0.36c-1.787,0-2.854-1.176-2.854-2.927s1.032-3.13,2.723-3.13c1.895,0,2.399,1.667,2.399,2.734
			c0,0.216-0.024,0.384-0.036,0.491H-510.419z M-507.325-214.656c0.012-0.672-0.276-1.716-1.463-1.716
			c-1.067,0-1.535,0.984-1.619,1.716H-507.325z"/>
		<path d="M-501.036-212.089h-0.024c-0.312,0.575-0.959,1.031-1.895,1.031c-1.355,0-2.459-1.175-2.459-2.938
			c0-2.171,1.403-3.13,2.627-3.13c0.899,0,1.499,0.443,1.787,1.007h0.024l0.036-0.875h0.996c-0.024,0.491-0.036,0.995-0.036,1.595
			v6.585h-1.055V-212.089z M-501.036-214.644c0-0.144-0.012-0.312-0.048-0.443c-0.156-0.648-0.719-1.2-1.511-1.2
			c-1.092,0-1.751,0.924-1.751,2.231c0,1.151,0.552,2.158,1.715,2.158c0.684,0,1.271-0.419,1.511-1.151
			c0.048-0.144,0.084-0.348,0.084-0.503V-214.644z"/>
		<path d="M-493.381-212.773c0,0.6,0.012,1.127,0.048,1.583h-0.936l-0.06-0.947h-0.024c-0.276,0.468-0.887,1.079-1.919,1.079
			c-0.911,0-2.003-0.504-2.003-2.543v-3.394h1.056v3.214c0,1.104,0.336,1.848,1.295,1.848c0.708,0,1.199-0.492,1.391-0.96
			c0.06-0.156,0.096-0.348,0.096-0.54v-3.562h1.056V-212.773z"/>
		<path d="M-490.452-218.625c0.012,0.359-0.252,0.647-0.671,0.647c-0.372,0-0.636-0.288-0.636-0.647c0-0.372,0.276-0.66,0.66-0.66
			C-490.703-219.285-490.452-218.997-490.452-218.625z M-491.627-211.19v-5.805h1.056v5.805H-491.627z"/>
		<path d="M-488.819-215.184c0-0.684-0.012-1.271-0.048-1.811h0.923l0.036,1.14h0.048c0.264-0.78,0.899-1.271,1.607-1.271
			c0.12,0,0.204,0.012,0.3,0.036v0.995c-0.108-0.024-0.216-0.036-0.36-0.036c-0.744,0-1.271,0.563-1.416,1.355
			c-0.024,0.144-0.048,0.312-0.048,0.491v3.095h-1.043V-215.184z"/>
		<path d="M-484.427-213.901c0.024,1.428,0.936,2.016,1.991,2.016c0.755,0,1.211-0.132,1.607-0.3l0.18,0.755
			c-0.372,0.168-1.007,0.36-1.931,0.36c-1.787,0-2.854-1.176-2.854-2.927s1.032-3.13,2.723-3.13c1.895,0,2.399,1.667,2.399,2.734
			c0,0.216-0.024,0.384-0.036,0.491H-484.427z M-481.333-214.656c0.012-0.672-0.276-1.716-1.463-1.716
			c-1.067,0-1.535,0.984-1.619,1.716H-481.333z"/>
		<path d="M-473.99-219.705v7.017c0,0.516,0.012,1.104,0.048,1.499h-0.947l-0.048-1.008h-0.024c-0.324,0.648-1.032,1.14-1.979,1.14
			c-1.403,0-2.483-1.188-2.483-2.95c-0.012-1.931,1.188-3.118,2.603-3.118c0.888,0,1.487,0.42,1.751,0.888h0.024v-3.467H-473.99z
			 M-475.045-214.632c0-0.132-0.012-0.312-0.048-0.443c-0.156-0.672-0.731-1.224-1.523-1.224c-1.091,0-1.739,0.96-1.739,2.243
			c0,1.175,0.576,2.146,1.715,2.146c0.708,0,1.355-0.468,1.547-1.259c0.036-0.145,0.048-0.288,0.048-0.456V-214.632z"/>
		<path d="M-472.487-216.035c0-0.443,0.3-0.755,0.72-0.755s0.696,0.312,0.708,0.755c0,0.42-0.276,0.744-0.72,0.744
			C-472.199-215.291-472.487-215.616-472.487-216.035z M-472.487-211.801c0-0.444,0.3-0.756,0.72-0.756s0.696,0.312,0.708,0.756
			c0,0.42-0.276,0.743-0.72,0.743C-472.199-211.058-472.487-211.381-472.487-211.801z"/>
		<path d="M-457.802-218.098h-2.975l-0.3,2.003c0.18-0.024,0.348-0.048,0.636-0.048c0.6,0,1.199,0.132,1.679,0.42
			c0.611,0.348,1.115,1.02,1.115,2.003c0,1.522-1.211,2.662-2.902,2.662c-0.852,0-1.571-0.24-1.943-0.479l0.264-0.804
			c0.324,0.192,0.959,0.432,1.667,0.432c0.996,0,1.847-0.647,1.847-1.691c-0.012-1.007-0.684-1.727-2.243-1.727
			c-0.444,0-0.792,0.048-1.08,0.084l0.504-3.742h3.73V-218.098z"/>
		<path d="M-451.85-218.242c-0.216-0.013-0.492,0-0.792,0.048c-1.655,0.275-2.531,1.487-2.71,2.771h0.036
			c0.372-0.492,1.02-0.899,1.883-0.899c1.379,0,2.351,0.995,2.351,2.519c0,1.427-0.972,2.746-2.591,2.746
			c-1.667,0-2.758-1.295-2.758-3.322c0-1.535,0.552-2.746,1.319-3.514c0.647-0.636,1.511-1.031,2.495-1.151
			c0.312-0.048,0.576-0.061,0.768-0.061V-218.242z M-452.15-213.744c0-1.115-0.636-1.787-1.607-1.787
			c-0.636,0-1.224,0.396-1.511,0.96c-0.072,0.12-0.12,0.275-0.12,0.468c0.024,1.283,0.612,2.23,1.715,2.23
			C-452.762-211.873-452.15-212.629-452.15-213.744z"/>
	</g>
	<g>
	</g>
	<g>
	</g>
	<g>
	</g>
	<g>
	</g>
	<g>
	</g>
	<g>
	</g>
</g>
</svg>
